# AST/ASF file generated using VICON BodyLanguage
# -----------------------------------------------
:version 1.10
:name VICON
:units
  mass 1.0
  length 0.45
  angle deg
:documentation
   .ast/.asf automatically generated from VICON data using
   VICON BodyBuilder and BodyLanguage model FoxedUp or BRILLIANT.MOD
:root
   order TX TY TZ RX RY RZ
   axis XYZ
   position 0 0 0  
   orientation 0 0 0 
:bonedata
  begin
     id 1 
     name lhipjoint
     direction 0.625129 -0.738222 0.253461 
     length 2.5165 
     axis 0 0 0  XYZ
  end
  begin
     id 2 
     name lfemur
     direction 0.34202 -0.939693 0  
     length 7.54288  
     axis 0 0 20  XYZ
    dof rx ry rz
    limits (-160.0 20.0)
           (-70.0 70.0)
           (-60.0 70.0)
  end
  begin
     id 3 
     name ltibia
     direction 0.34202 -0.939693 0   
     length 7.71864   
     axis 0 0 20   XYZ
    dof rx
    limits (-10.0 170.0)
  end
  begin
     id 4 
     name lfoot
     direction 0.0772037 -0.212115 0.97419   
     length 2.18429   
     axis -90 7.62852e-016 20   XYZ
    dof rx rz
    limits (-45.0 90.0)
           (-70.0 20.0)
  end
  begin
     id 5 
     name ltoes
     direction 1.53513e-011 -4.21834e-011 1   
     length 1.09718   
     axis -90 7.62852e-016 20   XYZ
    dof rx
    limits (-90.0 20.0)
  end
  begin
     id 6 
     name rhipjoint
     direction -0.621946 -0.740623 0.254285   
     length 2.50835  
     axis 0 0 0  XYZ 
  end
  begin
     id 7 
     name rfemur
     direction -0.34202 -0.939693 0   
     length 7.43366   
     axis 0 0 -20   XYZ
    dof rx ry rz
    limits (-160.0 20.0)
           (-70.0 70.0)
           (-70.0 60.0)
  end
  begin
     id 8 
     name rtibia
     direction -0.34202 -0.939693 0   
     length 7.77122   
     axis 0 0 -20   XYZ
    dof rx
    limits (-10.0 170.0)
 end
 begin
     id 9 
     name rfoot
     direction -0.082694 -0.2272 0.970331   
     length 2.2293  
     axis -90 -7.62852e-016 -20   XYZ
    dof rx rz
    limits (-45.0 90.0)
           (-20.0 70.0)
  end
  begin
     id 10 
     name rtoes
     direction -1.53565e-011 -4.21695e-011 1   
     length 1.1178   
     axis -90 -7.62852e-016 -20   XYZ
    dof rx
    limits (-90.0 20.0)
  end
  begin
     id 11 
     name lowerback
     direction -0.000695208 0.988391 -0.151929   
     length 1.95077   
     axis 0 0 0   XYZ
    dof rx ry rz
    limits (-20.0 45.0)
           (-30.0 30.0)
           (-30.0 30.0)
  end
  begin
     id 12 
     name upperback
     direction -0.00268925 0.999885 -0.0149203   
     length 1.96246   
     axis 0 0 0   XYZ
    dof rx ry rz
    limits (-20.0 45.0)
           (-30.0 30.0)
           (-30.0 30.0)
  end
  begin
     id 13 
     name thorax
     direction -0.000848408 0.998481 0.0550912   
     length 2.00867   
     axis 0 0 0   XYZ
    dof rx ry rz
    limits (-20.0 45.0)
           (-30.0 30.0)
           (-30.0 30.0)
  end
  begin
     id 14 
     name lowerneck
     direction -0.00577709 0.998999 0.0443608   
     length 1.75762   
     axis 0 0 0   XYZ
    dof rx ry rz
    limits (-20.0 45.0)
           (-30.0 30.0)
           (-30.0 30.0)
  end
  begin
     id 15 
     name upperneck
     direction 0.0320945 0.999136 0.0264105   
     length 1.72601   
     axis 0 0 0   XYZ
    dof rx ry rz
    limits (-20.0 45.0)
           (-30.0 30.0)
           (-30.0 30.0)
  end
  begin
     id 16
     name head
     direction 0.0120552 0.999916 0.00480151  
     length 1.79973  
     axis 0 0 0   XYZ
    dof rx ry rz
    limits (-20.0 45.0)
           (-30.0 30.0)
           (-30.0 30.0)
  end
  begin
     id 17 
     name lclavicle
     direction 0.909 0.371533 -0.188897  
     length 3.47956  
     axis 0 0 0   XYZ
    dof ry rz
    limits (-20.0 10.0)
           (0.0 20.0)
  end
  begin
     id 18 
     name lhumerus
     direction 1 -4.48963e-011 -6.48352e-028   
     length 5.52302   
     axis 180 -30 -90   XYZ
    dof rx ry rz
    limits (-60.0 90.0)
           (-90.0 90.0)
           (-90.0 90.0)
  end
  begin
     id 19
     name lradius
     direction 1 -4.48968e-011 -4.78536e-027   
     length 3.58675   
     axis 180 -30 -90   XYZ
    dof rx
    limits (-10.0 170.0)
  end
  begin
     id 20
     name lwrist
     direction 1 -4.48942e-011 -9.9435e-027   
     length 1.79337   
     axis 8.54312e-015 90 90   XYZ
    dof ry
    limits (-180.0 0.0)
 end
  begin
     id 21 
     name lhand
     direction 1 -4.4904e-011 -1.9887e-026   
     length 0.536412   
     axis 1.26896e-014 90 90   XYZ
    dof rx rz
    limits (-90.0 90.0)
           (-45.0 45.0)
  end
  begin
     id 22 
     name lfingers
     direction 1 -4.48893e-011 -3.9774e-026   
     length 0.432469   
     axis 2.53792e-014 90 90   XYZ
    dof rx
    limits (0.0 90.0)
  end
  begin
     id 23
     name lthumb
     direction 0.707107 -6.34934e-011 0.707107   
     length 0.620942   
     axis -90 45 2.85299e-015   XYZ
    dof rx rz
    limits (-45.0 45.0)
           (-45.0 45.0)
  end
  begin
     id 24 
     name rclavicle
     direction -0.89595 0.416672 -0.153813   
     length 3.44099  
     axis 0 0 0   XYZ 
    dof ry rz
    limits (-10.0 20.0)
           (-20.0 0.0)
  end
  begin
     id 25 
     name rhumerus
     direction -1 -4.48952e-011 5.57804e-028  
     length 5.8478   
     axis 180 30 90   XYZ
    dof rx ry rz
    limits (-90.0 60.0)
           (-90.0 90.0)
           (-90.0 90.0)
  end
  begin
     id 26 
     name rradius
     direction -1 -4.48967e-011 -7.93646e-027   
     length 3.62717   
     axis 180 30 90   XYZ
    dof rx
    limits (-10.0 170.0)
  end
  begin
     id 27 
     name rwrist
     direction -1 -4.49008e-011 -9.9435e-027   
     length 1.81359   
     axis 8.54312e-015 -90 -90   XYZ
    dof ry
    limits (-180.0 0.0)
  end
  begin
     id 28
     name rhand
     direction -1 -4.48812e-011 -1.9887e-026   
     length 0.650516   
     axis 1.26896e-014 -90 -90   XYZ
    dof rx rz
    limits (-90.0 90.0)
           (-45.0 45.0)
  end
  begin
     id 29
     name rfingers
     direction -1 -4.49228e-011 -3.9774e-026   
     length 0.524463   
     axis 2.53792e-014 -90 -90   XYZ
    dof rx
    limits (0.0 90.0)
  end
  begin
     id 30
     name rthumb
     direction -0.707107 -6.34912e-011 0.707107   
     length 0.753027   
     axis -90 -45 -2.85299e-015   XYZ
    dof rx rz
    limits (-45.0 45.0)
           (-45.0 45.0)
  end
:hierarchy
  begin
    root lhipjoint rhipjoint lowerback
    lhipjoint lfemur
    lfemur ltibia
    ltibia lfoot
    lfoot ltoes
    rhipjoint rfemur
    rfemur rtibia
    rtibia rfoot
    rfoot rtoes
    lowerback upperback
    upperback thorax
    thorax lowerneck lclavicle rclavicle
    lowerneck upperneck
    upperneck head
    lclavicle lhumerus
    lhumerus lradius
    lradius lwrist
    lwrist lhand lthumb
    lhand lfingers
    rclavicle rhumerus
    rhumerus rradius
    rradius rwrist
    rwrist rhand rthumb
    rhand rfingers
  end

#!OML:ASF F:\VICON\USERDATA\INSTALL\rory3\rory3.ASF
:FULLY-SPECIFIED
:DEGREES
480
root 2.11394 17.8189 45.7338 -26.0401 65.7562 -29.9316
lowerback 7.8651 -0.240324 8.44259
upperback 1.4678 0.525527 2.28363
thorax -2.83681 0.226437 -2.41704
lowerneck -0.665493 0.0197083 10.491
upperneck 21.2584 0.887472 -6.08795
head 6.61831 0.963581 -3.67395
rclavicle -1.18277e-014 1.19271e-014
rhumerus -27.2443 -4.49115 -73.2645
rradius 44.1032
rwrist 6.51864
rhand -23.9897 16.4074
rfingers 7.12502
rthumb 2.48732 -13.5579
lclavicle -1.18277e-014 1.19271e-014
lhumerus -34.6116 10.4901 71.0079
lradius 13.6983
lwrist 12.9364
lhand -37.2418 25.8777
lfingers 7.12502
lthumb -10.308 55.6051
rfemur 9.44216 2.22937 32.7929
rtibia 19.332
rfoot -5.46877 -8.64883
rtoes -27.595
lfemur -25.6338 -1.53969 -14.1941
ltibia 15.1757
lfoot -10.5972 21.0289
ltoes -12.7528
481
root 2.26034 17.7864 45.7758 -27.1636 65.7651 -30.9424
lowerback 7.84751 -0.356296 8.58068
upperback 1.4746 0.387635 2.3953
thorax -2.83423 0.158928 -2.36348
lowerneck -0.645961 0.205565 10.1522
upperneck 21.3055 1.14634 -5.93513
head 6.65085 1.07549 -3.55207
rclavicle 2.51463e-014 1.86858e-014
rhumerus -27.1481 -4.05793 -73.4173
rradius 43.9092
rwrist 6.57636
rhand -23.6845 16.1199
rfingers 7.12502
rthumb 2.78203 -13.8417
lclavicle 2.51463e-014 1.86858e-014
lhumerus -35.0274 11.131 70.7466
lradius 13.6737
lwrist 13.3173
lhand -37.6871 26.3702
lfingers 7.12502
lthumb -10.7375 56.0758
rfemur 9.82794 2.06041 33.0192
rtibia 19.8052
rfoot -5.43955 -8.20538
rtoes -26.5787
lfemur -25.3052 -1.69198 -14.0049
ltibia 15.7459
lfoot -10.5193 21.3231
ltoes -10.5656
482
root 2.40944 17.7529 45.8249 -27.5164 65.9035 -31.0716
lowerback 7.80745 -0.4621 8.22248
upperback 1.54622 0.21165 2.46961
thorax -2.75718 0.0797603 -2.0696
lowerneck -0.679382 0.48613 9.80107
upperneck 21.273 1.53978 -5.8662
head 6.67651 1.24069 -3.44644
rclavicle 2.8128e-014 7.95139e-016
rhumerus -26.8923 -3.69855 -73.4528
rradius 43.5123
rwrist 7.2006
rhand -23.5778 16.325
rfingers 7.12502
rthumb 2.88512 -13.6352
lclavicle 2.8128e-014 7.95139e-016
lhumerus -35.3102 11.9355 70.5385
lradius 13.565
lwrist 13.512
lhand -38.1128 26.6994
lfingers 7.12502
lthumb -11.1481 56.3833
rfemur 10.3096 1.92681 32.8904
rtibia 20.265
rfoot -5.23686 -7.63836
rtoes -25.9548
lfemur -25.2004 -1.98811 -14.5871
ltibia 16.5293
lfoot -5.07028 22.6785
ltoes -17.836
483
root 2.56251 17.756 45.8657 -27.6617 65.9348 -30.9122
lowerback 7.88511 -0.330414 7.9749
upperback 1.54101 0.363515 2.2753
thorax -2.79137 0.153087 -2.1496
lowerneck -0.508148 0.557828 10.1401
upperneck 21.2431 1.63593 -5.8546
head 6.64997 1.31816 -3.49404
rclavicle -2.11706e-014 -3.18055e-015
rhumerus -27.1409 -4.14742 -73.5667
rradius 43.2208
rwrist 7.87266
rhand -23.4158 16.5707
rfingers 7.12502
rthumb 3.04158 -13.3874
lclavicle -2.11706e-014 -3.18055e-015
lhumerus -35.4192 12.0097 70.3251
lradius 13.4123
lwrist 13.498
lhand -37.548 26.9982
lfingers 7.12502
lthumb -10.6033 56.7107
rfemur 10.8104 1.9339 32.6777
rtibia 20.783
rfoot -4.68488 -7.08206
rtoes -26.5644
lfemur -25.0098 -1.87434 -14.6706
ltibia 17.3457
lfoot -4.63858 23.1655
ltoes -3.43716
484
root 2.71693 17.7632 45.9056 -28.0867 65.7911 -31.0827
lowerback 7.95018 0.0592181 8.05002
upperback 1.42664 0.879403 1.88094
thorax -2.88944 0.397183 -2.65429
lowerneck -0.171344 0.319479 11.1736
upperneck 21.305 1.29447 -5.84922
head 6.59491 1.24721 -3.68734
rclavicle -8.69683e-014 3.97569e-015
rhumerus -27.8073 -5.00634 -73.7527
rradius 42.8894
rwrist 7.89658
rhand -23.1862 16.6241
rfingers 7.12502
rthumb 3.26332 -13.3307
lclavicle -8.69683e-014 3.97569e-015
lhumerus -35.375 11.19 70.0691
lradius 13.2072
lwrist 13.4925
lhand -36.9168 25.7547
lfingers 7.12502
lthumb -9.99438 55.4974
rfemur 11.107 2.00819 32.6648
rtibia 21.551
rfoot -4.03908 -6.54649
rtoes -26.9186
lfemur -24.8622 -1.60316 -14.4375
ltibia 18.1437
lfoot -4.93975 22.5387
ltoes 9.88667
485
root 2.87523 17.7761 45.9305 -27.4894 66.1722 -30.2798
lowerback 7.83608 0.298114 7.67645
upperback 1.35252 1.134 1.45512
thorax -2.87424 0.519966 -2.91333
lowerneck -0.0873727 0.206701 11.6685
upperneck 21.525 1.12571 -5.76746
head 6.64293 1.22381 -3.75625
rclavicle 2.34566e-014 8.74653e-015
rhumerus -28.178 -5.55454 -73.8439
rradius 42.4129
rwrist 8.0383
rhand -22.9966 16.8382
rfingers 7.12502
rthumb 3.44639 -13.1137
lclavicle 2.34566e-014 8.74653e-015
lhumerus -35.3076 10.7378 69.873
lradius 12.9871
lwrist 13.6197
lhand -36.5679 23.9312
lfingers 7.12502
lthumb -9.65772 53.6898
rfemur 11.064 1.78105 31.8918
rtibia 22.6154
rfoot -3.29042 -5.85208
rtoes -27.3402
lfemur -24.7773 -1.60951 -14.7933
ltibia 18.9334
lfoot -6.45756 20.9844
ltoes 23.7234
486
root 3.02665 17.763 45.9634 -27.1237 66.4962 -29.6237
lowerback 7.78914 0.407285 7.25084
upperback 1.39823 1.22345 1.19018
thorax -2.79357 0.569337 -2.95874
lowerneck 0.0385676 0.255678 11.724
upperneck 21.5622 1.18929 -5.62196
head 6.64131 1.27557 -3.71415
rclavicle 9.93923e-015 -7.95139e-016
rhumerus -28.4789 -6.72966 -74.2173
rradius 41.9088
rwrist 9.41816
rhand -23.1076 17.045
rfingers 7.12502
rthumb 3.33919 -12.9086
lclavicle 9.93923e-015 -7.95139e-016
lhumerus -35.2588 10.8103 69.7337
lradius 12.9017
lwrist 13.3378
lhand -36.24 24.1023
lfingers 7.12502
lthumb -9.34143 53.8753
rfemur 10.9074 1.78295 31.3427
rtibia 24.0463
rfoot -2.53981 -5.4005
rtoes -27.2296
lfemur -24.6541 -1.86926 -15.6304
ltibia 19.7657
lfoot -2.34506 20.9463
ltoes 15.4431
487
root 3.16957 17.7699 46.0076 -25.5241 67.1251 -27.4378
lowerback 8.03053 0.675773 6.04844
upperback 1.40621 1.47036 0.600662
thorax -2.90866 0.693532 -2.92739
lowerneck 0.438479 0.130075 12.289
upperneck 21.395 1.01924 -5.49614
head 6.51135 1.25193 -3.77353
rclavicle -3.50855e-014 8.74653e-015
rhumerus -28.7932 -7.88406 -74.4868
rradius 41.145
rwrist 10.0284
rhand -23.3184 17.2354
rfingers 7.12502
rthumb 3.13566 -12.7213
lclavicle -3.50855e-014 8.74653e-015
lhumerus -34.9758 10.4545 69.6981
lradius 12.7418
lwrist 13.0654
lhand -36.6401 26.1403
lfingers 7.12502
lthumb -9.72741 55.8956
rfemur 10.6938 1.97431 30.1671
rtibia 25.8501
rfoot -1.81379 -5.22827
rtoes -25.7227
lfemur -24.1692 -2.08594 -17.0336
ltibia 20.5134
lfoot -0.000425007 20.436
ltoes 12.1659
